<mxfile host="app.diagrams.net" modified="2021-06-16T17:58:55.728Z" agent="5.0 (Windows NT 10.0; Win64; x64) AppleWebKit/537.36 (KHTML, like Gecko) Chrome/91.0.4472.101 Safari/537.36 Edg/91.0.864.48" etag="q7Q1AfC6J36ET3XEwzcs" version="14.7.10" type="github">
  <diagram id="XcTqmCaAKfdVCiH1pDG_" name="Page-1">
    <mxGraphModel dx="1563" dy="659" grid="1" gridSize="10" guides="1" tooltips="1" connect="1" arrows="1" fold="1" page="1" pageScale="1" pageWidth="850" pageHeight="1100" math="0" shadow="0">
      <root>
        <mxCell id="0" />
        <mxCell id="1" parent="0" />
        <mxCell id="-iETr67XM-bVC9Xhks8X-1" value="Reply Class" style="shape=umlLifeline;perimeter=lifelinePerimeter;container=1;collapsible=0;recursiveResize=0;rounded=0;shadow=0;strokeWidth=1;" vertex="1" parent="1">
          <mxGeometry x="223" y="200" width="100" height="400" as="geometry" />
        </mxCell>
        <mxCell id="-iETr67XM-bVC9Xhks8X-2" value="" style="points=[];perimeter=orthogonalPerimeter;rounded=0;shadow=0;strokeWidth=1;" vertex="1" parent="-iETr67XM-bVC9Xhks8X-1">
          <mxGeometry x="45" y="70" width="10" height="280" as="geometry" />
        </mxCell>
        <mxCell id="-iETr67XM-bVC9Xhks8X-3" value="dispatch" style="verticalAlign=bottom;startArrow=oval;endArrow=block;startSize=8;shadow=0;strokeWidth=1;" edge="1" parent="-iETr67XM-bVC9Xhks8X-1" target="-iETr67XM-bVC9Xhks8X-2">
          <mxGeometry relative="1" as="geometry">
            <mxPoint x="-65" y="70" as="sourcePoint" />
          </mxGeometry>
        </mxCell>
        <mxCell id="-iETr67XM-bVC9Xhks8X-4" value="" style="points=[];perimeter=orthogonalPerimeter;rounded=0;shadow=0;strokeWidth=1;" vertex="1" parent="-iETr67XM-bVC9Xhks8X-1">
          <mxGeometry x="50" y="120" width="10" height="80" as="geometry" />
        </mxCell>
        <mxCell id="-iETr67XM-bVC9Xhks8X-5" value="Forum API" style="shape=umlLifeline;perimeter=lifelinePerimeter;container=1;collapsible=0;recursiveResize=0;rounded=0;shadow=0;strokeWidth=1;" vertex="1" parent="1">
          <mxGeometry x="403" y="200" width="100" height="400" as="geometry" />
        </mxCell>
        <mxCell id="-iETr67XM-bVC9Xhks8X-6" value="" style="points=[];perimeter=orthogonalPerimeter;rounded=0;shadow=0;strokeWidth=1;" vertex="1" parent="-iETr67XM-bVC9Xhks8X-5">
          <mxGeometry x="45" y="80" width="10" height="270" as="geometry" />
        </mxCell>
        <mxCell id="-iETr67XM-bVC9Xhks8X-7" value="return flag" style="verticalAlign=bottom;endArrow=open;dashed=1;endSize=8;shadow=0;strokeWidth=1;" edge="1" parent="1" target="-iETr67XM-bVC9Xhks8X-2">
          <mxGeometry relative="1" as="geometry">
            <mxPoint x="378" y="356" as="targetPoint" />
            <mxPoint x="445" y="440" as="sourcePoint" />
            <Array as="points">
              <mxPoint x="368" y="440" />
            </Array>
          </mxGeometry>
        </mxCell>
        <mxCell id="-iETr67XM-bVC9Xhks8X-8" value="Permission Check" style="verticalAlign=bottom;endArrow=block;entryX=0;entryY=0;shadow=0;strokeWidth=1;" edge="1" parent="1" source="-iETr67XM-bVC9Xhks8X-2" target="-iETr67XM-bVC9Xhks8X-6">
          <mxGeometry relative="1" as="geometry">
            <mxPoint x="378" y="280" as="sourcePoint" />
          </mxGeometry>
        </mxCell>
        <mxCell id="-iETr67XM-bVC9Xhks8X-9" value="Fail" style="verticalAlign=bottom;endArrow=block;entryX=1;entryY=0;shadow=0;strokeWidth=1;" edge="1" parent="1" source="-iETr67XM-bVC9Xhks8X-6" target="-iETr67XM-bVC9Xhks8X-4">
          <mxGeometry relative="1" as="geometry">
            <mxPoint x="343" y="320" as="sourcePoint" />
          </mxGeometry>
        </mxCell>
        <mxCell id="-iETr67XM-bVC9Xhks8X-10" value="return flag" style="verticalAlign=bottom;endArrow=open;dashed=1;endSize=8;exitX=1;exitY=0.95;shadow=0;strokeWidth=1;" edge="1" parent="1" source="-iETr67XM-bVC9Xhks8X-4" target="-iETr67XM-bVC9Xhks8X-6">
          <mxGeometry relative="1" as="geometry">
            <mxPoint x="343" y="377" as="targetPoint" />
          </mxGeometry>
        </mxCell>
        <mxCell id="-iETr67XM-bVC9Xhks8X-11" value="Admin" style="shape=umlActor;verticalLabelPosition=bottom;verticalAlign=top;html=1;outlineConnect=0;" vertex="1" parent="1">
          <mxGeometry x="38" y="180" width="30" height="60" as="geometry" />
        </mxCell>
        <mxCell id="-iETr67XM-bVC9Xhks8X-12" value="Client" style="shape=umlActor;verticalLabelPosition=bottom;verticalAlign=top;html=1;outlineConnect=0;" vertex="1" parent="1">
          <mxGeometry x="143" y="180" width="30" height="60" as="geometry" />
        </mxCell>
        <mxCell id="-iETr67XM-bVC9Xhks8X-13" value="Database API" style="shape=umlLifeline;perimeter=lifelinePerimeter;container=1;collapsible=0;recursiveResize=0;rounded=0;shadow=0;strokeWidth=1;" vertex="1" parent="1">
          <mxGeometry x="533" y="200" width="100" height="400" as="geometry" />
        </mxCell>
        <mxCell id="-iETr67XM-bVC9Xhks8X-14" value="" style="points=[];perimeter=orthogonalPerimeter;rounded=0;shadow=0;strokeWidth=1;" vertex="1" parent="-iETr67XM-bVC9Xhks8X-13">
          <mxGeometry x="45" y="70" width="10" height="280" as="geometry" />
        </mxCell>
        <mxCell id="-iETr67XM-bVC9Xhks8X-15" value="" style="points=[];perimeter=orthogonalPerimeter;rounded=0;shadow=0;strokeWidth=1;" vertex="1" parent="-iETr67XM-bVC9Xhks8X-13">
          <mxGeometry x="50" y="120" width="10" height="80" as="geometry" />
        </mxCell>
        <mxCell id="-iETr67XM-bVC9Xhks8X-16" value="Regenerated API" style="shape=umlLifeline;perimeter=lifelinePerimeter;container=1;collapsible=0;recursiveResize=0;rounded=0;shadow=0;strokeWidth=1;" vertex="1" parent="1">
          <mxGeometry x="713" y="200" width="100" height="400" as="geometry" />
        </mxCell>
        <mxCell id="-iETr67XM-bVC9Xhks8X-17" value="" style="points=[];perimeter=orthogonalPerimeter;rounded=0;shadow=0;strokeWidth=1;" vertex="1" parent="-iETr67XM-bVC9Xhks8X-16">
          <mxGeometry x="45" y="80" width="10" height="270" as="geometry" />
        </mxCell>
        <mxCell id="-iETr67XM-bVC9Xhks8X-18" value="Â return flag" style="verticalAlign=bottom;endArrow=open;dashed=1;endSize=8;shadow=0;strokeWidth=1;" edge="1" parent="1" source="-iETr67XM-bVC9Xhks8X-16" target="-iETr67XM-bVC9Xhks8X-14">
          <mxGeometry x="-0.0315" relative="1" as="geometry">
            <mxPoint x="688" y="356" as="targetPoint" />
            <Array as="points">
              <mxPoint x="648" y="440" />
            </Array>
            <mxPoint x="1" as="offset" />
          </mxGeometry>
        </mxCell>
        <mxCell id="-iETr67XM-bVC9Xhks8X-19" value="Redraw" style="verticalAlign=bottom;endArrow=block;entryX=0;entryY=0;shadow=0;strokeWidth=1;" edge="1" parent="1" source="-iETr67XM-bVC9Xhks8X-14" target="-iETr67XM-bVC9Xhks8X-17">
          <mxGeometry relative="1" as="geometry">
            <mxPoint x="688" y="280" as="sourcePoint" />
          </mxGeometry>
        </mxCell>
        <mxCell id="-iETr67XM-bVC9Xhks8X-20" value="Success" style="verticalAlign=bottom;endArrow=block;entryX=1;entryY=0;shadow=0;strokeWidth=1;" edge="1" parent="1" source="-iETr67XM-bVC9Xhks8X-17" target="-iETr67XM-bVC9Xhks8X-15">
          <mxGeometry relative="1" as="geometry">
            <mxPoint x="653" y="320" as="sourcePoint" />
          </mxGeometry>
        </mxCell>
        <mxCell id="-iETr67XM-bVC9Xhks8X-21" value="return flag" style="verticalAlign=bottom;endArrow=open;dashed=1;endSize=8;exitX=1;exitY=0.95;shadow=0;strokeWidth=1;" edge="1" parent="1" source="-iETr67XM-bVC9Xhks8X-15" target="-iETr67XM-bVC9Xhks8X-17">
          <mxGeometry relative="1" as="geometry">
            <mxPoint x="653" y="377" as="targetPoint" />
          </mxGeometry>
        </mxCell>
        <mxCell id="-iETr67XM-bVC9Xhks8X-22" value="" style="endArrow=none;dashed=1;html=1;dashPattern=1 3;strokeWidth=2;" edge="1" parent="1">
          <mxGeometry width="50" height="50" relative="1" as="geometry">
            <mxPoint x="52.5" y="600" as="sourcePoint" />
            <mxPoint x="53" y="260" as="targetPoint" />
          </mxGeometry>
        </mxCell>
        <mxCell id="-iETr67XM-bVC9Xhks8X-23" value="" style="endArrow=none;dashed=1;html=1;dashPattern=1 3;strokeWidth=2;" edge="1" parent="1">
          <mxGeometry width="50" height="50" relative="1" as="geometry">
            <mxPoint x="158" y="600" as="sourcePoint" />
            <mxPoint x="157.5" y="250" as="targetPoint" />
          </mxGeometry>
        </mxCell>
        <mxCell id="-iETr67XM-bVC9Xhks8X-24" value="Delete Reply" style="text;html=1;strokeColor=none;fillColor=none;align=center;verticalAlign=middle;whiteSpace=wrap;rounded=0;" vertex="1" parent="1">
          <mxGeometry x="48" y="120" width="40" height="20" as="geometry" />
        </mxCell>
        <mxCell id="-iETr67XM-bVC9Xhks8X-25" value="" style="endArrow=classic;html=1;exitX=1.349;exitY=0.039;exitDx=0;exitDy=0;exitPerimeter=0;" edge="1" parent="1" source="-iETr67XM-bVC9Xhks8X-6" target="-iETr67XM-bVC9Xhks8X-13">
          <mxGeometry width="50" height="50" relative="1" as="geometry">
            <mxPoint x="468" y="320" as="sourcePoint" />
            <mxPoint x="518" y="270" as="targetPoint" />
            <Array as="points">
              <mxPoint x="488" y="290" />
            </Array>
          </mxGeometry>
        </mxCell>
        <mxCell id="-iETr67XM-bVC9Xhks8X-26" value="Delete Reply" style="text;html=1;strokeColor=none;fillColor=none;align=center;verticalAlign=middle;whiteSpace=wrap;rounded=0;" vertex="1" parent="1">
          <mxGeometry x="498" y="300" width="50" height="20" as="geometry" />
        </mxCell>
        <mxCell id="-iETr67XM-bVC9Xhks8X-27" value="dispatch" style="verticalAlign=bottom;startArrow=oval;endArrow=block;startSize=8;shadow=0;strokeWidth=1;" edge="1" parent="1" target="-iETr67XM-bVC9Xhks8X-1">
          <mxGeometry relative="1" as="geometry">
            <mxPoint x="58" y="480" as="sourcePoint" />
            <mxPoint x="168" y="480" as="targetPoint" />
          </mxGeometry>
        </mxCell>
        <mxCell id="-iETr67XM-bVC9Xhks8X-28" value="Delete Reply" style="text;html=1;strokeColor=none;fillColor=none;align=center;verticalAlign=middle;whiteSpace=wrap;rounded=0;" vertex="1" parent="1">
          <mxGeometry x="338" y="490" width="50" height="20" as="geometry" />
        </mxCell>
        <mxCell id="-iETr67XM-bVC9Xhks8X-29" value="" style="endArrow=classic;html=1;exitX=1.349;exitY=0.039;exitDx=0;exitDy=0;exitPerimeter=0;entryX=-0.34;entryY=0.753;entryDx=0;entryDy=0;entryPerimeter=0;" edge="1" parent="1" target="-iETr67XM-bVC9Xhks8X-14">
          <mxGeometry width="50" height="50" relative="1" as="geometry">
            <mxPoint x="281.99" y="480.53" as="sourcePoint" />
            <mxPoint x="403" y="480" as="targetPoint" />
            <Array as="points">
              <mxPoint x="308.5" y="480" />
              <mxPoint x="368.5" y="480" />
            </Array>
          </mxGeometry>
        </mxCell>
      </root>
    </mxGraphModel>
  </diagram>
</mxfile>
